<?xml version="1.0" encoding="UTF-8" standalone="no"?>
<!-- Generator: Adobe Illustrator 18.0.0, SVG Export Plug-In . SVG Version: 6.00 Build 0)  -->

<svg
   xmlns:dc="http://purl.org/dc/elements/1.1/"
   xmlns:cc="http://creativecommons.org/ns#"
   xmlns:rdf="http://www.w3.org/1999/02/22-rdf-syntax-ns#"
   xmlns:svg="http://www.w3.org/2000/svg"
   xmlns="http://www.w3.org/2000/svg"
   xmlns:sodipodi="http://sodipodi.sourceforge.net/DTD/sodipodi-0.dtd"
   xmlns:inkscape="http://www.inkscape.org/namespaces/inkscape"
   version="1.1"
   id="Layer_1"
   x="0px"
   y="0px"
   viewBox="0 0 356.61313 90.1"
   enable-background="new 0 0 368 109"
   xml:space="preserve"
   inkscape:version="0.48.4 r9939"
   width="100%"
   height="100%"
   sodipodi:docname="header_SAP.svg"><metadata
   id="metadata108"><rdf:RDF><cc:Work
       rdf:about=""><dc:format>image/svg+xml</dc:format><dc:type
         rdf:resource="http://purl.org/dc/dcmitype/StillImage" /><dc:title></dc:title></cc:Work></rdf:RDF></metadata><defs
   id="defs106" /><sodipodi:namedview
   pagecolor="#ffffff"
   bordercolor="#666666"
   borderopacity="1"
   objecttolerance="10"
   gridtolerance="10"
   guidetolerance="10"
   inkscape:pageopacity="0"
   inkscape:pageshadow="2"
   inkscape:window-width="1296"
   inkscape:window-height="721"
   id="namedview104"
   showgrid="false"
   fit-margin-top="0"
   fit-margin-left="0"
   fit-margin-right="0"
   fit-margin-bottom="0"
   inkscape:zoom="2.1981798"
   inkscape:cx="146.00001"
   inkscape:cy="33.92301"
   inkscape:window-x="0"
   inkscape:window-y="0"
   inkscape:window-maximized="0"
   inkscape:current-layer="Layer_1" />
<g
   id="g3"
   transform="translate(-11.386867,-10)">
	<polygon
   points="368,10 368,99.9 69.3,99.9 31.1,10 "
   id="polygon5"
   style="fill:#f0ab00" />
	<path
   d="m 93.2,58.5 c 0,-2.8 -1.5,-5.2 -3.1,-7.4 -0.7,-1 -1.4,-1.6 -2.4,-2.4 -0.4,-0.3 -1,-0.7 -1.5,-1 -0.4,-0.2 -1,-0.4 -1.2,-0.8 -0.1,-0.2 -0.9,-0.1 -1.2,-0.3 -0.2,-0.2 -0.6,-0.1 -0.8,-0.3 -0.3,-0.3 -1.5,-0.4 -1.9,-0.4 -0.6,-0.1 -1.4,-0.4 -1.9,-0.2 -0.6,0.2 -1.2,0.6 -1.7,1 -0.2,-0.6 -1.2,-0.4 -1.1,-1.3 0.1,-0.7 0.2,-1.4 0.4,-2 0.4,-1 1,-2 1.5,-2.9 0.2,0.4 0.5,0.5 0.8,0.2 0.2,-0.2 0.2,-0.6 0.2,-0.9 0,-0.7 0,-1.1 0.4,-1.7 1.4,-1.8 1.2,-4 1.4,-6.1 0.1,-1.2 0.5,-2.4 0.5,-3.4 0,-0.7 0.1,-1.3 0,-2 -0.1,-0.7 -0.6,-1.3 -0.5,-2 0.1,-0.5 -0.2,-1.2 -0.4,-1.6 -0.2,-0.3 -0.3,-0.5 -0.5,-0.7 -0.2,-0.2 -0.4,-0.4 -0.5,-0.7 -0.2,-0.3 -3.3,-2.9 -3.5,-3 -0.6,-0.3 -3.1,-1.3 -3.8,-1.1 -0.4,0 -1.9,-0.2 -3.6,0.3 -1.7,0.5 -2.9,1.4 -3.7,2 -0.1,0.1 -1.9,1.6 -2.1,1.7 -0.3,0.3 -1.6,2 -1.8,2.3 -0.2,0.4 -0.3,0.9 -0.5,1.3 -0.1,0.2 -0.2,0.4 -0.3,0.6 0,0.1 -0.5,1.5 -0.4,2 0,0.2 -0.1,0.4 -0.1,0.6 0,0.6 -0.6,1.1 -0.8,1.7 -0.3,0.9 -0.4,2.4 -0.2,3.3 0.2,0.6 0.6,1.2 1.1,1.6 0.1,0.1 0.9,0.5 0.9,0.5 -0.1,2.4 -0.5,4.7 -0.6,7.1 -0.1,1.8 -0.1,3.6 -0.1,5.4 -1.7,-0.2 -2.9,1.1 -4,2.2 -0.8,-1.5 -2.1,-2.8 -3.1,-4.1 -1,-1.2 -2.3,-2.1 -3.2,-3.4 -0.9,-1.2 -1.6,-2.4 -2.4,-3.6 -0.2,-0.3 -0.9,-1 -0.9,-1.4 0,-1 -0.6,-1.6 -1.3,-2.1 -0.2,-0.3 -0.2,-1.4 -0.1,-1.8 0,-0.3 0.1,-0.7 0.2,-1 0.1,-0.4 0.4,-0.9 0.3,-1.2 -0.2,-0.6 0.5,-1.2 -0.3,-1.6 -0.3,-0.1 -0.8,0.3 -1.1,0 l 0,0 C 45,28.2 45.4,26.3 45.4,24.3 45.4,16.4 39,10 31.1,10 c -7.9,0 -14.3,6.4 -14.3,14.3 0,2.8 0.8,5.3 2.1,7.5 0.3,1.1 0.3,2.2 0,3.3 -0.3,1.4 -0.7,2.9 -0.6,4.3 0.1,1.1 0.4,2.2 0.8,3.3 0.2,0.5 0.2,0.9 0.2,1.4 0,0.3 -0.1,0.5 -0.2,0.7 -0.3,0.8 -0.2,1.1 0.6,1.5 0.2,0.1 -1,3.1 -1.1,3.4 -0.2,0.6 -0.9,0.5 -1,1.1 -0.1,0.6 -0.2,1.1 -0.3,1.7 -0.7,4.3 -1.7,8.4 -2.6,12.7 -0.4,1.9 -0.5,4 -1.5,5.7 -0.4,0.7 -0.5,1.4 -0.7,2.1 -0.3,1.2 -0.6,2.4 -0.8,3.6 -0.3,2.1 -0.7,5.1 0.5,7 0.7,1 1.6,1.6 2.6,2.3 0.9,0.6 2,1.3 3.2,1.4 0.6,0 1.3,-0.2 1.9,-0.5 0.7,-0.4 1,-1.2 1.8,-1.5 1.5,-0.5 3,-1 4.5,-1.7 1.2,-0.5 2.3,-1.1 3.5,-1.6 2,-0.8 4.1,-1.5 6.1,-2.4 2.1,-0.9 4.4,-1.9 6.2,-3.3 1.6,-1.2 3,-2.7 4.6,-3.9 0.1,0.8 0.2,1.6 0,2.4 -0.2,0.9 -0.5,1.7 -0.9,2.6 -0.5,1.1 -0.7,1.7 -0.4,2.9 0.3,1.3 0.4,2.5 1.5,3.5 -0.2,1.3 -0.7,2.5 -1,3.7 -0.3,1.1 -0.5,2.3 -0.8,3.5 -0.4,1.5 -0.2,2.6 0.9,3.8 0.5,0.6 0.6,1.7 1,2.4 0.4,0.7 0.1,0.8 -0.2,1.6 -0.2,0.3 -0.2,1.3 -0.1,1.3 H 87 c 0.3,-1 0.5,-2.1 0.5,-3.1 0,-1.1 0,-2.4 -0.2,-3.5 -0.2,-1 -0.8,-1.9 -1.2,-2.9 0.1,-0.5 0.2,-1.7 0.1,-2.6 0.3,-0.6 0.2,-1.7 0.1,-2.4 0,-0.8 0.1,-1.6 0.4,-2.3 0.2,-0.5 0.6,-0.8 0.8,-1.3 0.1,-0.4 0.1,-0.8 0.2,-1.2 0.3,-0.9 0.5,-1.7 0.8,-2.6 0.6,-1.7 0.9,-3.4 1.8,-5 0.9,-1.5 1.6,-3.2 2.1,-4.9 1,-3.2 0.8,-6.7 0.8,-9.8 z m -57.3,3.8 c -0.4,0.5 -1,0.7 -1.5,1 -1.1,0.6 -2.1,1.2 -3.1,1.9 -2,1.2 -4,2.5 -5.6,4.3 -0.3,-0.7 0.2,-1.5 0.1,-2.2 -0.1,-0.4 -0.2,-0.9 -0.2,-1.3 0,-0.4 0.1,-0.9 0,-1.4 -0.2,-0.8 0,-1.5 -0.2,-2.3 -0.1,-0.4 -0.1,-0.9 0.1,-1.3 0.2,-0.4 -0.1,-0.6 -0.1,-1 0,-0.5 0,-1.5 0.3,-2 0.2,-0.2 -0.1,-0.5 -0.1,-0.8 0.1,-0.5 0.3,-1.1 0.4,-1.6 0.1,-0.9 0.3,-1.7 0.5,-2.6 0.1,-0.6 0.3,-1.5 -0.1,-2 0,-1 0.5,-2.2 0.9,-3 0.4,-0.8 0.3,-1.8 0.9,-2.5 0.5,-0.6 1.2,-1.2 1.9,-1.7 1.7,-1.5 3.4,-2.9 5.4,-3.9 0.7,-0.3 1.3,-0.6 2,-0.9 0.4,-0.2 0.4,0.1 0.7,0.4 0.1,0.4 0.8,1.3 1.2,1.4 0.6,0.1 1,1.1 1.2,1.6 0.8,1.7 1.6,3.5 2.4,5.2 0.5,1.3 1.7,4.4 2.8,6.4 -4.3,1.2 -7.2,5 -9.9,8.3 z"
   id="path7"
   inkscape:connector-curvature="0" />
	<g
   id="g9">
		<g
   id="g11">
			<g
   id="g13">
				<g
   id="g15">
					
						<linearGradient
   id="SVGID_1_"
   gradientUnits="userSpaceOnUse"
   x1="316"
   y1="65.764603"
   x2="316"
   y2="33.132301"
   gradientTransform="matrix(1,0,0,-1,0,109)">
						<stop
   offset="0"
   style="stop-color:#27B6EA"
   id="stop18" />
						<stop
   offset="0.1758"
   style="stop-color:#1FA4DD"
   id="stop20" />
						<stop
   offset="0.4969"
   style="stop-color:#1389C9"
   id="stop22" />
						<stop
   offset="0.782"
   style="stop-color:#0C79BD"
   id="stop24" />
						<stop
   offset="1"
   style="stop-color:#0973B9"
   id="stop26" />
					</linearGradient>
					<polyline
   points="283,75.9 316.4,75.9 349,43.2 283,43.2 283,75.9      "
   id="polyline28"
   style="fill:url(#SVGID_1_)" />
				</g>
				<path
   d="m 322.2,49.4 h -6.5 V 64.8 L 310,49.4 h -5.6 l -4.8,12.9 c -0.5,-3.3 -3.9,-4.4 -6.5,-5.2 -1.7,-0.6 -3.6,-1.4 -3.6,-2.3 0,-0.8 1,-1.4 2.9,-1.3 1.3,0.1 2.5,0.2 4.8,1.3 l 2.3,-3.9 c -2.1,-1.1 -5,-1.7 -7.4,-1.7 l 0,0 c -2.8,0 -5.1,0.9 -6.5,2.4 -1,1 -1.5,2.3 -1.6,3.8 0,2 0.7,3.4 2.2,4.5 1.3,1 3,1.6 4.4,2 1.8,0.6 3.3,1 3.3,2.1 0,0.4 -0.2,0.7 -0.4,1 -0.4,0.5 -1.1,0.6 -2.1,0.7 -1.8,0 -3.2,-0.2 -5.4,-1.5 l -2,4 c 2.2,1.2 4.7,2 7.3,2 h 0.3 c 2.3,0 4.1,-0.7 5.6,-1.9 0.1,-0.1 0.2,-0.1 0.2,-0.2 l -0.7,1.7 h 5.9 l 1,-3 c 1,0.4 2.2,0.6 3.5,0.6 1.2,0 2.4,-0.2 3.4,-0.5 l 1,3 h 9.6 v -6.2 h 2.1 c 5.1,0 8.1,-2.6 8.1,-6.9 0,-5.2 -2.9,-7.4 -9.1,-7.4 z m -15,13.2 c -0.8,0 -1.5,-0.1 -2.1,-0.4 l 2.1,-6.5 0,0 2,6.5 c -0.6,0.3 -1.3,0.4 -2,0.4 z m 15.4,-3.7 h -1.4 v -5.2 h 1.4 c 1.9,0 3.4,0.6 3.4,2.6 0,1.9 -1.5,2.6 -3.4,2.6"
   id="path30"
   inkscape:connector-curvature="0"
   style="fill:#ffffff" />
			</g>
		</g>
		<g
   id="g32">
			<path
   d="M 283.1,35.8 V 28 h 1.3 v 7.8 h -1.3 z"
   id="path34"
   inkscape:connector-curvature="0"
   style="fill:#231f20" />
			<path
   d="m 285.9,35.8 v -5.6 h 1.3 v 0.9 c 0.4,-0.5 1.1,-1 2,-1 1,0 1.7,0.5 1.7,1.6 v 4.1 h -1.3 v -3.7 c 0,-0.6 -0.3,-0.9 -0.8,-0.9 -0.6,0 -1,0.3 -1.5,0.7 v 3.9 h -1.4 z"
   id="path36"
   inkscape:connector-curvature="0"
   style="fill:#231f20" />
			<path
   d="m 291.6,35.1 0.7,-0.8 c 0.4,0.4 1,0.7 1.8,0.7 0.7,0 1.1,-0.2 1.1,-0.6 0,-0.5 -0.6,-0.6 -1.3,-0.8 -1,-0.2 -2.1,-0.5 -2.1,-1.8 0,-1 0.8,-1.7 2.1,-1.7 1.1,0 1.7,0.3 2.3,0.8 l -0.6,0.8 c -0.4,-0.3 -1.1,-0.6 -1.6,-0.6 -0.7,0 -1,0.3 -1,0.6 0,0.5 0.6,0.6 1.2,0.7 1,0.2 2.1,0.5 2.1,1.8 0,1.2 -1.1,1.7 -2.4,1.7 -0.8,0.1 -1.8,-0.3 -2.3,-0.8 z"
   id="path38"
   inkscape:connector-curvature="0"
   style="fill:#231f20" />
			<path
   d="m 297.4,29.2 v -1.1 h 1.3 v 1.1 h -1.3 z m 0,6.6 v -5.6 h 1.3 v 5.6 h -1.3 z"
   id="path40"
   inkscape:connector-curvature="0"
   style="fill:#231f20" />
			<path
   d="m 299.3,36.7 c 0,-0.6 0.3,-1 0.9,-1.2 -0.3,-0.1 -0.4,-0.4 -0.4,-0.7 0,-0.4 0.3,-0.8 0.8,-1 -0.6,-0.4 -0.9,-0.9 -0.9,-1.6 0,-1.2 0.9,-2 2.4,-2 0.8,0 1.3,0.3 1.7,0.6 0.4,-0.3 0.9,-0.5 1.4,-0.6 v 1.1 c -0.3,0 -0.6,0 -1,0.1 0.1,0.2 0.2,0.5 0.2,0.8 0,1.2 -0.9,2 -2.3,2 -0.3,0 -0.5,0 -0.8,-0.1 -0.2,0.1 -0.3,0.2 -0.3,0.4 0,0.2 0.1,0.3 0.6,0.3 l 1,0.1 c 1.7,0.1 2.3,0.6 2.3,1.5 0,1.2 -1.2,1.7 -2.9,1.7 -1.9,-0.1 -2.7,-0.6 -2.7,-1.4 z m 4.5,-0.3 c 0,-0.4 -0.3,-0.6 -1.4,-0.6 l -1,-0.1 c -0.1,0 -0.2,0 -0.3,0 -0.4,0.2 -0.5,0.4 -0.5,0.7 0,0.5 0.6,0.7 1.7,0.7 0.9,0 1.5,-0.3 1.5,-0.7 z m -0.6,-4.2 c 0,-0.7 -0.4,-1.1 -1.1,-1.1 -0.7,0 -1.1,0.4 -1.1,1.1 0,0.7 0.4,1.1 1.2,1.1 0.6,-0.1 1,-0.4 1,-1.1 z"
   id="path42"
   inkscape:connector-curvature="0"
   style="fill:#231f20" />
			<path
   d="M 305.9,35.8 V 28 h 1.3 v 3 c 0.4,-0.4 1,-0.9 2.1,-0.9 1,0 1.6,0.6 1.6,1.7 v 4 h -1.3 v -3.7 c 0,-0.6 -0.3,-0.9 -0.8,-0.9 -0.6,0 -1,0.3 -1.5,0.7 v 3.9 c 0,0 -1.4,0 -1.4,0 z"
   id="path44"
   inkscape:connector-curvature="0"
   style="fill:#231f20" />
			<path
   d="m 312.5,34.4 v -3.1 h -1 v -1 h 1 v -2 h 1.3 v 2 h 1.5 v 1 h -1.5 V 34 c 0,0.6 0.2,0.8 0.8,0.8 0.2,0 0.4,0 0.6,-0.1 v 1 c -0.1,0 -0.6,0.1 -1,0.1 -1.4,0.1 -1.7,-0.4 -1.7,-1.4 z"
   id="path46"
   inkscape:connector-curvature="0"
   style="fill:#231f20" />
			<path
   d="m 315.5,35.1 0.7,-0.8 c 0.4,0.4 1,0.7 1.8,0.7 0.7,0 1.1,-0.2 1.1,-0.6 0,-0.5 -0.6,-0.6 -1.3,-0.8 -1,-0.2 -2.1,-0.5 -2.1,-1.8 0,-1 0.8,-1.7 2.1,-1.7 1.1,0 1.7,0.3 2.3,0.8 l -0.6,0.8 c -0.4,-0.3 -1.1,-0.6 -1.6,-0.6 -0.7,0 -1,0.3 -1,0.6 0,0.5 0.6,0.6 1.2,0.7 1,0.2 2.1,0.5 2.1,1.8 0,1.2 -1.1,1.7 -2.4,1.7 -0.8,0.1 -1.7,-0.3 -2.3,-0.8 z"
   id="path48"
   inkscape:connector-curvature="0"
   style="fill:#231f20" />
			<path
   d="m 324.1,35.8 v -4.6 h -1 v -1 h 1 v -0.6 c 0,-0.9 0.4,-1.7 1.8,-1.7 0.2,0 0.7,0 0.8,0.1 v 1 c -0.1,0 -0.3,0 -0.4,0 -0.5,0 -0.8,0.1 -0.8,0.7 v 0.5 h 1.2 v 1 h -1.2 v 4.6 h -1.4 z"
   id="path50"
   inkscape:connector-curvature="0"
   style="fill:#231f20" />
			<path
   d="m 327.3,35.8 v -5.6 h 1.3 v 0.9 l 0,0 c 0.3,-0.6 1,-1 2,-1 h 0.1 v 1.2 c -0.1,0 -0.3,0 -0.3,0 -0.8,0 -1.4,0.4 -1.7,1 v 3.6 l -1.4,-0.1 0,0 z"
   id="path52"
   inkscape:connector-curvature="0"
   style="fill:#231f20" />
			<path
   d="m 330.9,33 c 0,-2.1 1.4,-2.9 2.7,-2.9 1.4,0 2.7,0.8 2.7,2.9 0,2.1 -1.4,2.9 -2.7,2.9 -1.3,0.1 -2.7,-0.8 -2.7,-2.9 z m 4.2,0 c 0,-1 -0.4,-1.8 -1.4,-1.8 -0.9,0 -1.4,0.7 -1.4,1.8 0,1.1 0.4,1.8 1.4,1.8 0.9,0.1 1.4,-0.6 1.4,-1.8 z"
   id="path54"
   inkscape:connector-curvature="0"
   style="fill:#231f20" />
			<path
   d="m 337.3,35.8 v -5.6 h 1.3 V 31 c 0.4,-0.5 1.1,-0.9 1.9,-0.9 0.9,0 1.3,0.4 1.5,0.9 0.4,-0.5 1.1,-0.9 2,-0.9 1.1,0 1.6,0.7 1.6,1.7 v 4 h -1.3 v -3.7 c 0,-0.6 -0.2,-0.9 -0.8,-0.9 -0.5,0 -1,0.3 -1.4,0.7 v 3.9 h -1.3 v -3.7 c 0,-0.6 -0.2,-0.9 -0.8,-0.9 -0.5,0 -1,0.3 -1.4,0.7 v 3.9 c 0,0 -1.3,0 -1.3,0 z"
   id="path56"
   inkscape:connector-curvature="0"
   style="fill:#231f20" />
		</g>
	</g>
	<g
   id="g58">
		<path
   d="M 112,49.9 V 33.7 h 3.6 l 6.8,10.4 0,0 V 33.7 h 3.3 V 50 h -3.3 l -7.1,-10.5 0,0 V 50 l -3.3,-0.1 0,0 z"
   id="path60"
   inkscape:connector-curvature="0" />
		<path
   d="M 128.4,49.9 V 33.7 h 6.5 c 0.7,0 1.5,0.1 2.2,0.2 0.7,0.1 1.3,0.3 1.9,0.6 0.5,0.3 1,0.7 1.3,1.2 0.3,0.5 0.5,1.2 0.5,2 0,0.6 -0.1,1.1 -0.3,1.5 -0.2,0.4 -0.4,0.8 -0.7,1.1 -0.3,0.3 -0.6,0.5 -1,0.7 -0.4,0.2 -0.8,0.3 -1.2,0.4 v 0.1 c 0.5,0.1 1,0.2 1.4,0.4 0.4,0.2 0.8,0.4 1.1,0.8 0.3,0.3 0.6,0.7 0.8,1.2 0.2,0.5 0.3,1 0.3,1.7 0,0.8 -0.2,1.5 -0.5,2.1 -0.3,0.6 -0.8,1 -1.3,1.4 -0.5,0.3 -1.2,0.6 -1.9,0.8 -0.7,0.2 -1.4,0.2 -2.2,0.2 h -6.9 v -0.2 z m 3.5,-9.5 h 2.6 c 0.9,0 1.6,-0.2 2.1,-0.5 0.5,-0.3 0.7,-0.8 0.7,-1.4 0,-0.6 -0.2,-1.1 -0.6,-1.5 -0.4,-0.4 -1.1,-0.5 -2.1,-0.5 h -2.7 v 3.9 z m 0,6.9 h 2.9 c 1,0 1.7,-0.2 2.2,-0.6 0.5,-0.4 0.7,-0.9 0.7,-1.7 0,-1.4 -1,-2.2 -3,-2.2 H 132 l -0.1,4.5 0,0 z"
   id="path62"
   inkscape:connector-curvature="0" />
		<path
   d="m 141.6,49.9 5.8,-16.3 h 3.4 l 5.8,16.3 H 153 l -1.2,-3.7 h -5.5 l -1.3,3.7 h -3.4 z m 5.4,-6.2 h 3.8 l -1.9,-5.5 0,0 -1.9,5.5 z"
   id="path64"
   inkscape:connector-curvature="0" />
		<path
   d="M 161.4,49.9 V 38.2 h 3.5 v 1.9 l 0,0 c 0.2,-0.2 0.4,-0.5 0.6,-0.7 0.2,-0.3 0.5,-0.5 0.8,-0.7 0.3,-0.2 0.7,-0.4 1.1,-0.5 0.4,-0.1 0.9,-0.2 1.5,-0.2 h 0.1 l -0.1,3.1 c -0.1,0 -0.2,0 -0.4,0 -0.2,0 -0.4,0 -0.5,0 -0.7,0 -1.3,0.2 -1.8,0.5 -0.5,0.3 -0.9,0.7 -1.3,1.1 v 7.4 h -3.5 v -0.2 z"
   id="path66"
   inkscape:connector-curvature="0" />
		<path
   d="m 169.9,46.8 v -8.6 h 3.5 v 7.5 c 0,0.5 0.1,0.9 0.3,1.2 0.2,0.3 0.6,0.4 1.1,0.4 0.5,0 0.9,-0.1 1.3,-0.3 0.4,-0.2 0.8,-0.5 1.2,-0.8 v -8 h 3.5 v 11.7 h -3.5 v -1.8 c -0.2,0.2 -0.4,0.5 -0.6,0.7 -0.2,0.2 -0.5,0.5 -0.9,0.7 -0.4,0.2 -0.7,0.4 -1.1,0.5 -0.4,0.1 -0.9,0.2 -1.4,0.2 -0.5,0 -1,-0.1 -1.4,-0.2 -0.4,-0.1 -0.8,-0.3 -1.1,-0.6 -0.3,-0.3 -0.5,-0.6 -0.7,-1.1 -0.1,-0.4 -0.2,-0.9 -0.2,-1.5 z"
   id="path68"
   inkscape:connector-curvature="0" />
		<path
   d="M 183,49.9 V 38.2 h 3.5 V 40 c 0.2,-0.2 0.4,-0.5 0.6,-0.7 0.2,-0.2 0.5,-0.5 0.9,-0.7 0.4,-0.2 0.7,-0.4 1.1,-0.5 0.4,-0.1 0.9,-0.2 1.4,-0.2 0.5,0 1,0.1 1.4,0.2 0.4,0.1 0.8,0.3 1.1,0.6 0.3,0.3 0.5,0.6 0.7,1.1 0.2,0.5 0.3,0.9 0.3,1.5 v 8.6 h -3.5 v -7.5 c 0,-0.5 -0.1,-0.9 -0.3,-1.2 -0.2,-0.3 -0.6,-0.4 -1.1,-0.4 -0.5,0 -0.9,0.1 -1.3,0.3 -0.4,0.2 -0.8,0.5 -1.2,0.8 v 7.9 H 183 v 0.1 z"
   id="path70"
   inkscape:connector-curvature="0" />
		<path
   d="m 195,48.4 1.4,-2 c 0.5,0.5 1.2,0.8 1.9,1.1 0.7,0.3 1.5,0.4 2.2,0.4 0.6,0 1,-0.1 1.3,-0.3 0.3,-0.2 0.5,-0.5 0.5,-0.8 0,-0.4 -0.2,-0.7 -0.5,-0.9 -0.3,-0.2 -0.9,-0.4 -1.7,-0.5 -0.6,-0.1 -1.1,-0.2 -1.7,-0.3 -0.6,-0.1 -1,-0.3 -1.5,-0.6 -0.5,-0.3 -0.8,-0.6 -1.1,-1 -0.3,-0.4 -0.4,-1 -0.4,-1.6 0,-0.6 0.1,-1.2 0.3,-1.6 0.2,-0.5 0.5,-0.9 1,-1.2 0.4,-0.3 0.9,-0.6 1.4,-0.8 0.6,-0.2 1.2,-0.3 1.8,-0.3 1.2,0 2.2,0.2 3,0.5 0.8,0.3 1.5,0.7 2.2,1.3 l -1.4,2 c -0.6,-0.4 -1.2,-0.7 -1.8,-0.9 -0.6,-0.2 -1.1,-0.3 -1.7,-0.3 -0.5,0 -0.9,0.1 -1.2,0.3 -0.3,0.2 -0.4,0.4 -0.4,0.7 0,0.3 0.2,0.6 0.5,0.8 0.3,0.2 0.9,0.3 1.6,0.5 0.6,0.1 1.1,0.2 1.7,0.3 0.6,0.1 1.1,0.3 1.5,0.6 0.4,0.3 0.8,0.6 1.1,1 0.3,0.4 0.4,0.9 0.4,1.6 0,0.7 -0.1,1.3 -0.4,1.8 -0.3,0.5 -0.7,0.9 -1.1,1.2 -0.5,0.3 -1,0.5 -1.6,0.7 -0.6,0.1 -1.3,0.2 -1.9,0.2 -1.3,0 -2.4,-0.2 -3.3,-0.5 -0.9,-0.3 -1.5,-0.9 -2.1,-1.4 z"
   id="path72"
   inkscape:connector-curvature="0" />
		<path
   d="m 211.5,36.6 v -2.8 h 3.6 v 2.8 h -3.6 z m 0,13.3 V 38.2 h 3.5 v 11.7 h -3.5 z"
   id="path74"
   inkscape:connector-curvature="0" />
		<path
   d="m 216.2,40.8 v -2.6 h 1.9 v -4 h 3.5 v 4 h 3 v 2.6 h -3 v 5.1 c 0,0.6 0.1,1.1 0.3,1.3 0.2,0.2 0.7,0.4 1.3,0.4 0.2,0 0.4,0 0.7,0 0.2,0 0.4,-0.1 0.5,-0.1 V 50 c -0.1,0 -0.2,0 -0.4,0.1 -0.2,0.1 -0.4,0 -0.6,0.1 -0.2,0 -0.5,0 -0.7,0 -0.2,0 -0.5,0 -0.6,0 -0.9,0 -1.6,-0.1 -2.1,-0.2 -0.5,-0.1 -0.9,-0.4 -1.2,-0.7 -0.3,-0.3 -0.5,-0.7 -0.6,-1.1 -0.1,-0.4 -0.1,-0.9 -0.1,-1.5 v -5.9 c 0,0 -1.9,0 -1.9,0 z"
   id="path76"
   inkscape:connector-curvature="0" />
		<path
   d="m 225.2,48.4 1.4,-2 c 0.5,0.5 1.2,0.8 1.9,1.1 0.7,0.3 1.5,0.4 2.2,0.4 0.6,0 1,-0.1 1.3,-0.3 0.3,-0.2 0.5,-0.5 0.5,-0.8 0,-0.4 -0.2,-0.7 -0.5,-0.9 -0.3,-0.2 -0.9,-0.4 -1.7,-0.5 -0.6,-0.1 -1.1,-0.2 -1.7,-0.3 -0.6,-0.1 -1,-0.3 -1.5,-0.6 -0.5,-0.3 -0.8,-0.6 -1.1,-1 -0.3,-0.4 -0.4,-1 -0.4,-1.6 0,-0.6 0.1,-1.2 0.3,-1.6 0.2,-0.5 0.5,-0.9 1,-1.2 0.4,-0.3 0.9,-0.6 1.4,-0.8 0.6,-0.2 1.2,-0.3 1.8,-0.3 1.2,0 2.2,0.2 3,0.5 0.8,0.3 1.5,0.7 2.2,1.3 l -1.4,2 c -0.6,-0.4 -1.2,-0.7 -1.8,-0.9 -0.6,-0.2 -1.1,-0.3 -1.7,-0.3 -0.5,0 -0.9,0.1 -1.2,0.3 -0.3,0.2 -0.4,0.4 -0.4,0.7 0,0.3 0.2,0.6 0.5,0.8 0.3,0.2 0.9,0.3 1.6,0.5 0.6,0.1 1.1,0.2 1.7,0.3 0.6,0.1 1.1,0.3 1.5,0.6 0.4,0.3 0.8,0.6 1.1,1 0.3,0.4 0.4,0.9 0.4,1.6 0,0.7 -0.1,1.3 -0.4,1.8 -0.3,0.5 -0.7,0.9 -1.1,1.2 -0.5,0.3 -1,0.5 -1.6,0.7 -0.6,0.1 -1.3,0.2 -1.9,0.2 -1.3,0 -2.4,-0.2 -3.3,-0.5 -0.9,-0.3 -1.5,-0.9 -2.1,-1.4 z"
   id="path78"
   inkscape:connector-curvature="0" />
		<path
   d="m 110.8,70.4 1.4,-2 c 0.5,0.5 1.2,0.8 1.9,1.1 0.7,0.3 1.5,0.4 2.2,0.4 0.6,0 1,-0.1 1.3,-0.3 0.3,-0.2 0.5,-0.5 0.5,-0.8 0,-0.4 -0.2,-0.7 -0.5,-0.9 -0.3,-0.2 -0.9,-0.4 -1.7,-0.5 -0.6,-0.1 -1.1,-0.2 -1.7,-0.3 -0.6,-0.1 -1,-0.3 -1.5,-0.6 -0.4,-0.3 -0.8,-0.6 -1.1,-1 -0.3,-0.4 -0.4,-1 -0.4,-1.6 0,-0.6 0.1,-1.2 0.3,-1.6 0.2,-0.5 0.5,-0.9 1,-1.2 0.4,-0.3 0.9,-0.6 1.4,-0.8 0.6,-0.2 1.2,-0.3 1.8,-0.3 1.2,0 2.2,0.2 3,0.5 0.8,0.3 1.5,0.7 2.2,1.3 l -1.4,2 c -0.6,-0.4 -1.2,-0.7 -1.8,-0.9 -0.6,-0.2 -1.1,-0.3 -1.7,-0.3 -0.5,0 -0.9,0.1 -1.2,0.3 -0.3,0.2 -0.4,0.4 -0.4,0.7 0,0.3 0.2,0.6 0.5,0.8 0.3,0.2 0.9,0.3 1.6,0.5 0.6,0.1 1.1,0.2 1.7,0.3 0.6,0.1 1.1,0.3 1.5,0.6 0.4,0.3 0.8,0.6 1.1,1 0.3,0.4 0.4,0.9 0.4,1.6 0,0.7 -0.1,1.3 -0.4,1.8 -0.3,0.5 -0.7,0.9 -1.1,1.2 -0.5,0.3 -1,0.5 -1.6,0.7 -0.6,0.1 -1.3,0.2 -1.9,0.2 -1.3,0 -2.4,-0.2 -3.3,-0.5 -0.7,-0.5 -1.5,-0.9 -2.1,-1.4 z"
   id="path80"
   inkscape:connector-curvature="0" />
		<path
   d="m 121.8,62.8 v -2.6 h 1.9 v -4 h 3.5 v 4 h 3 v 2.6 h -3 v 5.1 c 0,0.6 0.1,1.1 0.3,1.3 0.2,0.2 0.6,0.4 1.3,0.4 0.2,0 0.4,0 0.6,0 0.2,0 0.4,-0.1 0.5,-0.1 V 72 c -0.1,0 -0.2,0 -0.4,0.1 -0.2,0 -0.4,0 -0.6,0.1 -0.2,0 -0.5,0 -0.7,0 -0.2,0 -0.5,0 -0.6,0 -0.9,0 -1.6,-0.1 -2.1,-0.2 -0.5,-0.2 -0.9,-0.4 -1.2,-0.7 -0.3,-0.3 -0.5,-0.7 -0.6,-1.1 -0.1,-0.4 -0.1,-0.9 -0.1,-1.5 v -5.9 l -1.8,0 0,0 z"
   id="path82"
   inkscape:connector-curvature="0" />
		<path
   d="m 131.2,68.9 c 0,-1.3 0.6,-2.4 1.8,-3.2 1.2,-0.8 3.1,-1.2 5.7,-1.5 V 64 c 0,-0.4 -0.1,-0.8 -0.4,-1 -0.2,-0.3 -0.6,-0.4 -1.2,-0.4 -0.7,0 -1.4,0.1 -2.1,0.4 -0.6,0.3 -1.2,0.6 -1.8,1.1 l -1.5,-2 c 0.3,-0.3 0.6,-0.5 1,-0.8 0.4,-0.2 0.8,-0.5 1.3,-0.7 0.5,-0.2 1,-0.4 1.6,-0.5 0.6,-0.1 1.3,-0.2 2,-0.2 1.6,0 2.8,0.4 3.5,1.2 0.7,0.8 1.1,1.9 1.1,3.4 V 69 c 0,0.7 0,1.3 0.1,1.7 0,0.5 0.1,0.8 0.3,1.1 h -3.5 C 139,71.5 139,71.3 138.9,71 c -0.1,-0.3 -0.1,-0.6 -0.1,-0.9 -0.5,0.6 -1.1,1.1 -1.8,1.4 -0.7,0.3 -1.4,0.5 -2.3,0.5 -0.5,0 -0.9,-0.1 -1.3,-0.2 -0.4,-0.1 -0.8,-0.3 -1.1,-0.6 -0.3,-0.3 -0.5,-0.6 -0.7,-1 -0.3,-0.3 -0.4,-0.8 -0.4,-1.3 z m 3.4,-0.6 c 0,0.4 0.1,0.7 0.4,0.8 0.2,0.2 0.6,0.3 0.9,0.3 0.6,0 1.1,-0.1 1.6,-0.3 0.5,-0.2 0.8,-0.4 1.1,-0.7 v -2.2 c -1.4,0.1 -2.4,0.4 -3,0.7 -0.6,0.3 -1,0.9 -1,1.4 z"
   id="path84"
   inkscape:connector-curvature="0" />
		<path
   d="m 143.4,62.8 v -2.6 h 1.9 v -4 h 3.5 v 4 h 3 v 2.6 h -3 v 5.1 c 0,0.6 0.1,1.1 0.3,1.3 0.2,0.2 0.6,0.4 1.3,0.4 0.2,0 0.4,0 0.6,0 0.2,0 0.4,-0.1 0.5,-0.1 V 72 c -0.1,0 -0.2,0 -0.4,0.1 -0.2,0 -0.4,0 -0.6,0.1 -0.2,0 -0.5,0 -0.7,0 -0.2,0 -0.5,0 -0.6,0 -0.9,0 -1.6,-0.1 -2.1,-0.2 -0.5,-0.2 -0.9,-0.4 -1.2,-0.7 -0.3,-0.3 -0.5,-0.7 -0.6,-1.1 -0.1,-0.4 -0.1,-0.9 -0.1,-1.5 v -5.9 l -1.8,0 0,0 z"
   id="path86"
   inkscape:connector-curvature="0" />
		<path
   d="m 152.2,70.4 1.4,-2 c 0.5,0.5 1.2,0.8 1.9,1.1 0.7,0.3 1.5,0.4 2.2,0.4 0.6,0 1,-0.1 1.3,-0.3 0.3,-0.2 0.5,-0.5 0.5,-0.8 0,-0.4 -0.2,-0.7 -0.5,-0.9 -0.3,-0.2 -0.9,-0.4 -1.7,-0.5 -0.6,-0.1 -1.1,-0.2 -1.7,-0.3 -0.6,-0.1 -1,-0.3 -1.5,-0.6 -0.4,-0.3 -0.8,-0.6 -1.1,-1 -0.3,-0.4 -0.4,-1 -0.4,-1.6 0,-0.6 0.1,-1.2 0.3,-1.6 0.2,-0.5 0.5,-0.9 1,-1.2 0.4,-0.3 0.9,-0.6 1.4,-0.8 0.6,-0.2 1.2,-0.3 1.8,-0.3 1.2,0 2.2,0.2 3,0.5 0.8,0.3 1.5,0.7 2.2,1.3 l -1.4,2 c -0.6,-0.4 -1.2,-0.7 -1.8,-0.9 -0.6,-0.2 -1.1,-0.3 -1.7,-0.3 -0.5,0 -0.9,0.1 -1.2,0.3 -0.3,0.2 -0.4,0.4 -0.4,0.7 0,0.3 0.2,0.6 0.5,0.8 0.3,0.2 0.9,0.3 1.6,0.5 0.6,0.1 1.1,0.2 1.7,0.3 0.6,0.1 1.1,0.3 1.5,0.6 0.4,0.3 0.8,0.6 1.1,1 0.3,0.4 0.4,0.9 0.4,1.6 0,0.7 -0.1,1.3 -0.4,1.8 -0.3,0.5 -0.7,0.9 -1.1,1.2 -0.5,0.3 -1,0.5 -1.6,0.7 -0.6,0.1 -1.3,0.2 -1.9,0.2 -1.3,0 -2.4,-0.2 -3.3,-0.5 -0.7,-0.5 -1.5,-0.9 -2.1,-1.4 z"
   id="path88"
   inkscape:connector-curvature="0" />
		<path
   d="m 167.2,60.2 h 3.5 l 1,4.2 c 0.1,0.3 0.1,0.6 0.2,0.9 0.1,0.3 0.1,0.5 0.2,0.8 0.1,0.3 0.1,0.6 0.2,0.9 0.1,0.3 0.1,0.7 0.2,1 l 0,0 c 0.1,-0.4 0.1,-0.7 0.2,-1 0.1,-0.3 0.1,-0.6 0.2,-0.9 0.1,-0.3 0.1,-0.6 0.2,-0.8 0.1,-0.2 0.1,-0.6 0.2,-0.9 l 1,-4.1 h 2.8 l 1.1,4.2 c 0.1,0.3 0.2,0.6 0.2,0.9 0,0.3 0.1,0.5 0.2,0.8 0.1,0.3 0.1,0.6 0.2,0.9 0.1,0.3 0.1,0.7 0.2,1 l 0,0 c 0.1,-0.4 0.1,-0.7 0.2,-1 0.1,-0.3 0.1,-0.6 0.2,-0.9 0.1,-0.3 0.1,-0.6 0.2,-0.8 0.1,-0.3 0.1,-0.5 0.2,-0.9 l 1.1,-4.2 H 184 L 180.6,72 h -3.3 l -1.8,-7.2 0,0 -1.8,7.2 h -3.3 l -3.2,-11.8 z"
   id="path90"
   inkscape:connector-curvature="0" />
		<path
   d="m 185,58.6 v -2.8 h 3.6 v 2.8 H 185 z m 0,13.3 V 60.2 h 3.5 V 71.9 H 185 z"
   id="path92"
   inkscape:connector-curvature="0" />
		<path
   d="m 189.7,62.8 v -2.6 h 1.9 v -4 h 3.5 v 4 h 3 v 2.6 h -3 v 5.1 c 0,0.6 0.1,1.1 0.3,1.3 0.2,0.2 0.7,0.4 1.3,0.4 0.2,0 0.4,0 0.7,0 0.2,0 0.4,-0.1 0.5,-0.1 V 72 c -0.1,0 -0.2,0 -0.4,0.1 -0.2,0.1 -0.4,0 -0.6,0.1 -0.2,0 -0.5,0 -0.7,0 -0.2,0 -0.5,0 -0.6,0 -0.9,0 -1.6,-0.1 -2.1,-0.2 -0.5,-0.2 -0.9,-0.4 -1.2,-0.7 -0.3,-0.3 -0.5,-0.7 -0.6,-1.1 -0.1,-0.4 -0.1,-0.9 -0.1,-1.5 v -5.9 l -1.9,0 0,0 z"
   id="path94"
   inkscape:connector-curvature="0" />
		<path
   d="M 199,71.9 V 55.7 h 3.5 V 62 c 0.2,-0.2 0.4,-0.5 0.6,-0.7 0.3,-0.2 0.5,-0.5 0.9,-0.7 0.3,-0.2 0.7,-0.4 1.1,-0.5 0.4,-0.1 0.9,-0.2 1.4,-0.2 0.5,0 1,0.1 1.4,0.2 0.4,0.1 0.8,0.3 1.1,0.6 0.3,0.3 0.5,0.6 0.7,1.1 0.2,0.4 0.3,0.9 0.3,1.5 v 8.6 h -3.5 v -7.5 c 0,-0.5 -0.1,-0.9 -0.3,-1.2 -0.2,-0.3 -0.6,-0.4 -1,-0.4 -0.5,0 -0.9,0.1 -1.3,0.3 -0.4,0.2 -0.8,0.5 -1.2,0.8 v 7.9 H 199 v 0.1 z"
   id="path96"
   inkscape:connector-curvature="0" />
		<path
   d="m 215.3,68.2 2.7,-1.6 c 0.5,0.9 1.1,1.6 1.8,2.1 0.8,0.5 1.6,0.7 2.6,0.7 0.8,0 1.5,-0.2 2,-0.5 0.5,-0.3 0.8,-0.8 0.8,-1.4 0,-0.6 -0.3,-1.1 -0.8,-1.4 -0.6,-0.3 -1.4,-0.6 -2.5,-0.9 -0.7,-0.2 -1.4,-0.4 -2.1,-0.6 -0.7,-0.2 -1.3,-0.5 -1.9,-0.9 -0.6,-0.4 -1,-0.8 -1.4,-1.4 -0.3,-0.6 -0.5,-1.3 -0.5,-2.1 0,-0.8 0.1,-1.4 0.4,-2 0.3,-0.6 0.7,-1.1 1.2,-1.5 0.5,-0.4 1.1,-0.7 1.8,-1 0.7,-0.2 1.5,-0.3 2.4,-0.3 0.8,0 1.6,0.1 2.3,0.3 0.7,0.2 1.3,0.4 1.8,0.7 0.5,0.3 1,0.7 1.4,1.1 0.4,0.4 0.7,0.8 1,1.3 l -2.5,1.9 c -0.4,-0.7 -1,-1.3 -1.7,-1.7 -0.7,-0.4 -1.5,-0.6 -2.3,-0.6 -0.8,0 -1.3,0.2 -1.7,0.5 -0.4,0.3 -0.6,0.7 -0.6,1.2 0,0.7 0.3,1.1 0.9,1.5 0.6,0.3 1.4,0.6 2.5,0.9 0.7,0.2 1.4,0.4 2.1,0.7 0.7,0.3 1.3,0.5 1.9,0.9 0.6,0.4 1,0.8 1.4,1.4 0.3,0.6 0.5,1.2 0.5,2.1 0,0.7 -0.1,1.3 -0.4,1.9 -0.3,0.6 -0.6,1.1 -1.2,1.6 -0.5,0.5 -1.2,0.8 -2,1.1 -0.8,0.3 -1.8,0.4 -2.9,0.4 -0.9,0 -1.7,-0.1 -2.4,-0.3 -0.7,-0.2 -1.4,-0.5 -1.9,-0.8 -0.6,-0.4 -1.1,-0.8 -1.5,-1.3 -0.5,-0.8 -0.8,-1.4 -1.2,-2 z"
   id="path98"
   inkscape:connector-curvature="0" />
		<path
   d="m 229.1,71.9 5.8,-16.3 h 3.4 l 5.8,16.3 h -3.6 l -1.2,-3.7 h -5.5 l -1.3,3.7 h -3.4 z m 5.4,-6.2 h 3.8 l -1.9,-5.5 0,0 -1.9,5.5 z"
   id="path100"
   inkscape:connector-curvature="0" />
		<path
   d="M 245.2,71.9 V 55.7 h 5.9 c 0.9,0 1.7,0.1 2.5,0.2 0.8,0.1 1.5,0.4 2.1,0.8 0.6,0.4 1.1,0.9 1.5,1.6 0.4,0.7 0.5,1.5 0.5,2.6 0,1.1 -0.2,2 -0.6,2.7 -0.4,0.7 -0.9,1.2 -1.5,1.6 -0.6,0.4 -1.4,0.7 -2.2,0.8 -0.8,0.1 -1.6,0.2 -2.4,0.2 h -2.3 v 5.7 c 0,0 -3.5,0 -3.5,0 z m 3.5,-8.5 h 2.5 c 1.1,0 1.9,-0.2 2.4,-0.6 0.5,-0.4 0.7,-1 0.7,-1.8 0,-0.8 -0.2,-1.4 -0.7,-1.8 -0.5,-0.4 -1.2,-0.6 -2.4,-0.6 h -2.5 v 4.8 z"
   id="path102"
   inkscape:connector-curvature="0" />
	</g>
</g>
</svg>