<?xml version="1.0" encoding="utf-8"?>
<!-- Generator: Adobe Illustrator 17.1.0, SVG Export Plug-In . SVG Version: 6.00 Build 0)  -->
<!DOCTYPE svg PUBLIC "-//W3C//DTD SVG 1.1//EN" "http://www.w3.org/Graphics/SVG/1.1/DTD/svg11.dtd">
<svg version="1.1" id="Layer_1" xmlns="http://www.w3.org/2000/svg" xmlns:xlink="http://www.w3.org/1999/xlink" x="0px" y="0px"
	 viewBox="0 0 767.5 193.9" enable-background="new 0 0 767.5 193.9" xml:space="preserve">
<polygon fill="#EFAB1F" points="767.5,193.5 124.6,193.5 42.4,0 767.5,0 "/>
<path fill="#010101" d="M176.1,104.4c0-6-3.2-11.2-6.7-15.9c-1.5-2.2-3-3.4-5.2-5.2c-0.9-0.6-2.2-1.5-3.2-2.2
	c-0.9-0.4-2.2-0.9-2.6-1.7c-0.2-0.4-1.9-0.2-2.6-0.6c-0.4-0.4-1.3-0.2-1.7-0.6c-0.6-0.6-3.2-0.9-4.1-0.9c-1.3-0.2-3-0.9-4.1-0.4
	c-1.3,0.4-2.6,1.3-3.7,2.2c-0.4-1.3-2.6-0.9-2.4-2.8c0.2-1.5,0.4-3,0.9-4.3c0.9-2.2,2.2-4.3,3.2-6.2c0.4,0.9,1.1,1.1,1.7,0.4
	c0.4-0.4,0.4-1.3,0.4-1.9c0-1.5,0-2.4,0.9-3.7c3-3.9,2.6-8.6,3-13.1c0.2-2.6,1.1-5.2,1.1-7.3c0-1.5,0.2-2.8,0-4.3
	c-0.2-1.5-1.3-2.8-1.1-4.3c0.2-1.1-0.4-2.6-0.9-3.4c-0.4-0.6-0.6-1.1-1.1-1.5c-0.4-0.4-0.9-0.9-1.1-1.5c-0.4-0.6-7.1-6.2-7.5-6.5
	c-1.3-0.6-6.7-2.8-8.2-2.4c-0.9,0-4.1-0.4-7.7,0.6c-3.7,1.1-6.2,3-8,4.3c-0.2,0.2-4.1,3.4-4.5,3.7c-0.6,0.6-3.4,4.3-3.9,4.9
	c-0.4,0.9-0.6,1.9-1.1,2.8c-0.2,0.4-0.4,0.9-0.6,1.3c0,0.2-1.1,3.2-0.9,4.3c0,0.4-0.2,0.9-0.2,1.3c0,1.3-1.3,2.4-1.7,3.7
	c-0.6,1.9-0.9,5.2-0.4,7.1c0.4,1.3,1.3,2.6,2.4,3.4c0.2,0.2,1.9,1.1,1.9,1.1c-0.2,5.2-1.1,10.1-1.3,15.3c-0.2,3.9-0.2,7.7-0.2,11.6
	c-3.7-0.4-6.2,2.4-8.6,4.7c-1.7-3.2-4.5-6-6.7-8.8c-2.2-2.6-4.9-4.5-6.9-7.3c-1.9-2.6-3.4-5.2-5.2-7.7c-0.4-0.6-1.9-2.2-1.9-3
	c0-2.2-1.3-3.4-2.8-4.5c-0.4-0.6-0.4-3-0.2-3.9c0-0.6,0.2-1.5,0.4-2.2c0.2-0.9,0.9-1.9,0.6-2.6c-0.4-1.3,1.1-2.6-0.6-3.4
	c-0.6-0.2-1.7,0.6-2.4,0l0,0c1.5-3.7,2.4-7.7,2.4-12.1C73.2,13.8,59.4,0,42.4,0S11.7,13.8,11.7,30.8c0,6,1.7,11.4,4.5,16.1
	c0.6,2.4,0.6,4.7,0,7.1c-0.6,3-1.5,6.2-1.3,9.3c0.2,2.4,0.9,4.7,1.7,7.1c0.4,1.1,0.4,1.9,0.4,3c0,0.6-0.2,1.1-0.4,1.5
	c-0.6,1.7-0.4,2.4,1.3,3.2c0.4,0.2-2.2,6.7-2.4,7.3c-0.4,1.3-1.9,1.1-2.2,2.4c-0.2,1.3-0.4,2.4-0.6,3.7c-1.5,9.3-3.7,18.1-5.6,27.3
	c-0.9,4.1-1.1,8.6-3.2,12.3c-0.9,1.5-1.1,3-1.5,4.5c-0.6,2.6-1.3,5.2-1.7,7.7c-0.6,4.5-1.5,11,1.1,15.1c1.5,2.2,3.4,3.4,5.6,5
	c1.9,1.3,4.3,2.8,6.9,3c1.3,0,2.8-0.4,4.1-1.1c1.5-0.9,2.2-2.6,3.9-3.2c3.2-1.1,6.5-2.2,9.7-3.7c2.6-1.1,4.9-2.4,7.5-3.4
	c4.3-1.7,8.8-3.2,13.1-5.2c4.5-1.9,9.5-4.1,13.3-7.1c3.4-2.6,6.5-5.8,9.9-8.4c0.2,1.7,0.4,3.4,0,5.2c-0.4,1.9-1.1,3.7-1.9,5.6
	c-1.1,2.4-1.5,3.7-0.9,6.2c0.6,2.8,0.9,5.4,3.2,7.5c-0.4,2.8-1.5,5.4-2.2,8c-0.6,2.4-1.1,5-1.7,7.5c-0.9,3.2-0.4,5.6,1.9,8.2
	c1.1,1.3,1.3,3.7,2.2,5.2c0.9,1.5,0.2,1.7-0.4,3.4c-0.4,0.6-0.4,2.8-0.2,2.8h86.9c0.6-2.2,1.1-4.5,1.1-6.7c0-2.4,0-5.2-0.4-7.5
	c-0.4-2.2-1.7-4.1-2.6-6.2c0.2-1.1,0.4-3.7,0.2-5.6c0.6-1.3,0.4-3.7,0.2-5.2c0-1.7,0.2-3.4,0.9-5c0.4-1.1,1.3-1.7,1.7-2.8
	c0.2-0.9,0.2-1.7,0.4-2.6c0.6-1.9,1.1-3.7,1.7-5.6c1.3-3.7,1.9-7.3,3.9-10.8c1.9-3.2,3.4-6.9,4.5-10.5
	C176.5,118.6,176.1,111.1,176.1,104.4z M52.8,112.6c-0.9,1.1-2.2,1.5-3.2,2.2c-2.4,1.3-4.5,2.6-6.7,4.1c-4.3,2.6-8.6,5.4-12.1,9.3
	c-0.6-1.5,0.4-3.2,0.2-4.7c-0.2-0.9-0.4-1.9-0.4-2.8s0.2-1.9,0-3c-0.4-1.7,0-3.2-0.4-5c-0.2-0.9-0.2-1.9,0.2-2.8
	c0.4-0.9-0.2-1.3-0.2-2.2c0-1.1,0-3.2,0.6-4.3c0.4-0.4-0.2-1.1-0.2-1.7c0.2-1.1,0.6-2.4,0.9-3.4c0.2-1.9,0.6-3.7,1.1-5.6
	c0.2-1.3,0.6-3.2-0.2-4.3c0-2.2,1.1-4.7,1.9-6.5s0.6-3.9,1.9-5.4c1.1-1.3,2.6-2.6,4.1-3.7c3.7-3.2,7.3-6.2,11.6-8.4
	c1.5-0.6,2.8-1.3,4.3-1.9c0.9-0.4,0.9,0.2,1.5,0.9c0.2,0.9,1.7,2.8,2.6,3c1.3,0.2,2.2,2.4,2.6,3.4c1.7,3.7,3.4,7.5,5.2,11.2
	c1.1,2.8,3.7,9.5,6,13.8C64.8,97.3,58.6,105.5,52.8,112.6z"/>
</svg>
